<svg width="146" height="25" viewBox="0 0 146 25" fill="none" xmlns="http://www.w3.org/2000/svg">
<path d="M26.5977 3.17651V9.53422C26.5977 17.4361 31.8386 23.7978 38.3487 23.7978C44.8588 23.7978 50.0997 17.4361 50.0997 9.53422V3.17651H26.5977Z" stroke="#FF7D33" stroke-width="2.13468" stroke-linecap="round"/>
<path d="M41.6726 8.09511C41.2311 8.22439 40.9227 8.68638 40.9227 9.2261C40.9259 9.57825 41.0235 9.83681 41.2505 10.087L41.4291 10.2829H41.3154C41.2505 10.2829 41.1174 10.3377 41.0138 10.4043C40.6727 10.6196 39.92 11.3394 39.3031 12.048C39.0697 12.3141 39.0471 12.3534 39.0306 12.5176C38.9887 12.9716 39.3616 13.2964 39.6861 13.089C39.7414 13.0577 39.9426 12.8697 40.1373 12.6742C40.3288 12.4783 40.4945 12.3181 40.5042 12.3181C40.5139 12.3181 40.5106 13.6486 40.4977 15.2729C40.4748 18.0084 40.4748 18.2392 40.5268 18.4038C40.6925 18.928 41.2767 18.9867 41.4908 18.5013C41.546 18.376 41.5525 18.2586 41.5525 17.1042V15.8404H41.7633H41.9742V17.0729C41.9742 18.4272 41.9806 18.4819 42.1657 18.6699C42.3084 18.8106 42.4773 18.8614 42.6394 18.8106C42.7987 18.7595 42.9672 18.5719 43.016 18.3919C43.0418 18.2939 43.0547 17.3977 43.0583 15.2884C43.0583 13.6525 43.068 12.3181 43.0745 12.3181C43.0809 12.3181 43.2498 12.4823 43.4478 12.6817C43.8727 13.1164 43.9086 13.1398 44.0836 13.1398C44.4243 13.1398 44.6614 12.7329 44.5219 12.3843C44.4698 12.2515 44.2263 12.0163 42.6523 10.5724C42.3084 10.2556 42.3052 10.2516 42.3862 10.2005C42.5229 10.1108 42.714 9.81697 42.7725 9.60957C42.8507 9.32405 42.8245 8.89735 42.7108 8.67409C42.4935 8.22438 42.0552 7.98169 41.6726 8.09511Z" fill="#FF7D33"/>
<path d="M34.3531 8.36904C33.5871 8.54908 33.3113 9.68008 33.8729 10.3336L34.0189 10.5057L33.8306 10.5295C33.4476 10.5684 33.1525 10.819 32.9997 11.2299L32.909 11.4725L32.9154 12.3763L32.9218 13.2805L32.5812 14.4626C32.2534 15.5936 32.1074 16.1413 32.1074 16.2158C32.1106 16.3447 32.1723 16.3681 32.6005 16.3879L33.0323 16.4074L33.0484 17.4876C33.0646 18.6499 33.0646 18.646 33.2464 18.7598C33.373 18.8379 33.477 18.83 33.6036 18.7245C33.7754 18.5833 33.7915 18.4778 33.7915 17.3742L33.7951 16.3879H34.006H34.2168V17.394C34.2168 18.5365 34.2298 18.6111 34.4507 18.7558C34.5608 18.8264 34.5805 18.83 34.7103 18.7752C34.947 18.6737 34.9599 18.6111 34.9635 17.6403C34.9667 17.1787 34.9764 16.7048 34.9861 16.5918L35.0055 16.3879H35.4082C35.8364 16.3879 35.9372 16.3566 35.9372 16.2238C35.9372 16.1766 35.7328 15.4996 35.4796 14.7168C35.1454 13.6719 35.0284 13.261 35.0349 13.1591L35.0446 13.0263L35.3171 13.2999C35.6219 13.6053 35.7098 13.6679 35.8719 13.7072C35.9433 13.7226 36.0082 13.7738 36.0505 13.84C36.0864 13.9027 36.3654 14.1922 36.667 14.4896L37.2189 15.0262L37.2576 15.8752C37.277 16.3408 37.3096 17.0102 37.329 17.3663C37.3483 17.7224 37.3648 18.1372 37.3648 18.2938C37.3648 18.5365 37.3745 18.5912 37.4459 18.6888C37.5431 18.83 37.6697 18.8649 37.8092 18.7947L37.9164 18.74V18.0745C37.9164 17.6284 37.9293 17.4016 37.9523 17.3817C38.0269 17.327 38.0462 17.4797 38.0462 18.0944C38.0462 18.552 38.0563 18.736 38.0886 18.7634C38.2216 18.8926 38.4651 18.8181 38.5462 18.6226C38.5821 18.5441 38.5982 18.3993 38.5982 18.18C38.5982 18 38.6272 17.3897 38.6631 16.8182C38.6986 16.2468 38.728 15.6325 38.728 15.4564V15.1277L38.9163 15.3232C39.2275 15.6484 39.3251 15.6753 39.4775 15.4917C39.588 15.3585 39.6009 15.1864 39.5166 15.065C39.4126 14.9203 38.8155 14.3096 38.5917 14.118L38.374 13.934L38.4651 13.8519C38.6594 13.6798 38.7506 13.2571 38.6498 12.9716C38.5526 12.6896 38.2313 12.4782 37.9845 12.533C37.5011 12.6388 37.3128 13.3237 37.6439 13.7659L37.7576 13.9186L37.5564 14.0435C37.3649 14.1573 37.3487 14.1608 37.2512 14.1065C37.1963 14.0752 37.05 13.938 36.9266 13.7972C36.8 13.6604 36.6444 13.4998 36.5795 13.4371C36.4787 13.3471 36.4626 13.3158 36.4884 13.2571C36.5404 13.1437 36.5275 12.8423 36.4658 12.6896C36.4271 12.5877 36.1477 12.2903 35.4986 11.6407C34.999 11.1398 34.5833 10.7131 34.5801 10.6937C34.5737 10.6703 34.6289 10.6425 34.7035 10.6271C35.1284 10.541 35.4401 10.1222 35.4727 9.59799C35.4921 9.31207 35.4498 9.10863 35.3232 8.86593C35.1224 8.48245 34.7261 8.27902 34.3531 8.36904Z" fill="#FF7D33"/>
<path d="M1.85429 5.73034C0.894724 7.55056 0.449219 9.64045 0.449219 12C0.449219 14.3595 0.929003 16.4494 1.88856 18.2697C2.84813 20.0899 4.18464 21.5056 5.89814 22.5168C7.61165 23.5281 9.56506 24 11.7926 24C13.5061 24 15.014 23.6629 16.282 22.9551C17.55 22.2809 18.5438 21.4382 19.2292 20.427L19.6405 23.7977H22.622V10.8876H12.2038V14.1573H18.8522V14.7303C18.7494 16.5843 18.064 18.0337 16.7618 19.0449C15.4595 20.0899 13.8831 20.5955 11.964 20.5955C10.4561 20.5955 9.11953 20.2584 7.98862 19.5168C6.8577 18.7753 6.00097 17.764 5.38411 16.4831C4.76724 15.2022 4.49307 13.6854 4.49307 12C4.49307 10.3146 4.8015 8.83146 5.41836 7.55056C6.03522 6.26966 6.89198 5.25843 8.02289 4.51686C9.15381 3.77529 10.4903 3.4045 11.9982 3.4045C13.6432 3.4045 15.014 3.8427 16.1449 4.68539C17.2758 5.5618 18.0298 6.74158 18.441 8.22472H22.3478C21.9366 5.73034 20.8056 3.70787 18.9893 2.22472C17.1387 0.741579 14.8426 0 12.101 0C9.73639 0 7.6802 0.505623 5.93242 1.51686C4.15038 2.52809 2.81385 3.91012 1.85429 5.73034ZM53.315 0.202251V23.7977H57.2561V0.202251H53.315ZM61.6483 0.202251V23.7977H69.2906C71.7237 23.7977 73.8485 23.3258 75.699 22.3146C77.5154 21.3371 78.9204 19.9551 79.9143 18.1685C80.8738 16.382 81.3879 14.3258 81.3879 12C81.3879 9.67416 80.8738 7.61798 79.9143 5.83147C78.9204 4.07866 77.5154 2.69663 75.699 1.68539C73.8485 0.707865 71.7237 0.202251 69.2906 0.202251H61.6483ZM69.2906 20.427H65.5894V3.57304H69.2906C71.8608 3.57304 73.8485 4.34832 75.2535 5.86517C76.6243 7.38202 77.344 9.4382 77.344 12C77.344 14.5955 76.6243 16.6517 75.2535 18.1685C73.8485 19.6854 71.8608 20.427 69.2906 20.427ZM84.8407 0.202251V23.7977H100.913V20.3595H88.7818V13.5169H98.4459V10.1798H88.7818V3.64046H100.502V0.202251H84.8407ZM104.151 23.7977H108.024V7.07865L119.71 23.7977H123.308V0.202251H119.436V16.9213L107.75 0.202251H104.151V23.7977ZM126.307 0.202251V3.64046H133.71V23.7977H137.651V3.64046H145.053V0.202251H126.307Z" fill="#1A8FE3"/>
</svg>
