<svg width="88" height="66" viewBox="0 0 88 66" fill="none" xmlns="http://www.w3.org/2000/svg">
<path d="M57.75 35.75C57.75 39.3967 56.3013 42.8941 53.7227 45.4727C51.1441 48.0513 47.6467 49.5 44 49.5C40.3533 49.5 36.8559 48.0513 34.2773 45.4727C31.6987 42.8941 30.25 39.3967 30.25 35.75C30.25 32.1033 31.6987 28.6059 34.2773 26.0273C36.8559 23.4487 40.3533 22 44 22C47.6467 22 51.1441 23.4487 53.7227 26.0273C56.3013 28.6059 57.75 32.1033 57.75 35.75Z" fill="#BBBBBB"/>
<path d="M11 11C8.08262 11 5.28473 12.1589 3.22183 14.2218C1.15893 16.2847 0 19.0826 0 22L0 55C0 57.9174 1.15893 60.7153 3.22183 62.7782C5.28473 64.8411 8.08262 66 11 66H77C79.9174 66 82.7153 64.8411 84.7782 62.7782C86.8411 60.7153 88 57.9174 88 55V22C88 19.0826 86.8411 16.2847 84.7782 14.2218C82.7153 12.1589 79.9174 11 77 11H70.554C67.6369 10.9994 64.8394 9.84004 62.777 7.777L58.223 3.223C56.1606 1.15996 53.3631 0.000623011 50.446 0H37.554C34.6369 0.000623011 31.8394 1.15996 29.777 3.223L25.223 7.777C23.1606 9.84004 20.3631 10.9994 17.446 11H11ZM13.75 22C13.0207 22 12.3212 21.7103 11.8055 21.1945C11.2897 20.6788 11 19.9793 11 19.25C11 18.5207 11.2897 17.8212 11.8055 17.3055C12.3212 16.7897 13.0207 16.5 13.75 16.5C14.4793 16.5 15.1788 16.7897 15.6945 17.3055C16.2103 17.8212 16.5 18.5207 16.5 19.25C16.5 19.9793 16.2103 20.6788 15.6945 21.1945C15.1788 21.7103 14.4793 22 13.75 22ZM63.25 35.75C63.25 40.8554 61.2219 45.7517 57.6118 49.3618C54.0017 52.9719 49.1054 55 44 55C38.8946 55 33.9983 52.9719 30.3882 49.3618C26.7781 45.7517 24.75 40.8554 24.75 35.75C24.75 30.6446 26.7781 25.7483 30.3882 22.1382C33.9983 18.5281 38.8946 16.5 44 16.5C49.1054 16.5 54.0017 18.5281 57.6118 22.1382C61.2219 25.7483 63.25 30.6446 63.25 35.75Z" fill="#BBBBBB"/>
</svg>
